<svg xmlns="http://www.w3.org/2000/svg" xmlns:xlink="http://www.w3.org/1999/xlink" id="Layer_1" x="0" y="0" version="1.1" viewBox="0 0 512 512" xml:space="preserve" style="enable-background:new 0 0 512 512"><circle style="fill:#ffe670" cx="255.996" cy="255.996" r="255.996"/><path style="fill:#fec000" d="M512,256.001c0-19.263-2.143-38.025-6.176-56.073l-74.188-74.188H213.302l-30.836-30.836H77.487	v318.733l77.761,77.761C186.172,504.652,220.227,512,256.001,512C397.385,512,512,397.385,512,256.001z"/><polygon style="fill:#005fd3" points="182.467 94.904 213.302 125.739 431.636 125.739 431.636 413.638 77.487 413.638 77.487 94.904"/><rect style="fill:#004db1" width="177.076" height="287.897" x="254.565" y="125.741"/><polygon style="fill:#08f" points="254.562 160.232 223.725 191.068 77.487 191.068 77.487 413.638 431.636 413.638 431.636 160.232"/><rect style="fill:#006ef5" width="177.076" height="253.405" x="254.565" y="160.233"/><g><polygon style="fill:#fff" points="325.839 317.135 325.839 347.385 183.284 347.385 183.284 317.135 157.355 317.135 157.355 347.385 157.355 373.314 183.284 373.314 325.839 373.314 351.767 373.314 351.767 347.385 351.767 317.135"/><polygon style="fill:#fff" points="280.214 284.092 280.214 219.339 228.91 219.339 228.91 284.092 206.42 284.092 254.562 335.298 302.704 284.092"/></g><g><polygon style="fill:#c8c6cc" points="325.839 317.135 325.839 347.385 254.562 347.385 254.562 373.314 325.839 373.314 351.767 373.314 351.767 347.385 351.767 317.135"/><polygon style="fill:#c8c6cc" points="254.562 335.298 302.704 284.092 280.214 284.092 280.214 219.339 254.562 219.339"/></g></svg>